<?xml version="1.0" encoding="UTF-8"?>
<svg version="1.1" xmlns="http://www.w3.org/2000/svg" width="500" height="500">
<path d="M0 0 C165 0 330 0 500 0 C500 165 500 330 500 500 C335 500 170 500 0 500 C0 335 0 170 0 0 Z " fill="#FEFEFE" transform="translate(0,0)"/>
<path d="M0 0 C15.51 0 31.02 0 47 0 C49.92875 7.033125 52.8575 14.06625 55.875 21.3125 C62.59474745 37.44143448 69.31814573 53.56883675 76.0625 69.6875 C76.42563293 70.55540161 76.78876587 71.42330322 77.16290283 72.31750488 C81.37587527 82.38331445 85.60483987 92.44221909 89.85546875 102.4921875 C90.26058182 103.45021774 90.66569489 104.40824799 91.08308411 105.39530945 C93.10331308 110.17200727 95.12535322 114.94792856 97.1496582 119.72290039 C100.84871801 128.4590774 104.5116493 137.20632326 108.0625 146.00390625 C108.37987122 146.78731888 108.69724243 147.57073151 109.02423096 148.37788391 C110.48780244 151.99158508 111.9415754 155.60846766 113.37402344 159.23461914 C117.77957163 170.24194809 122.48870937 181.99430533 134 187 C137.64730845 187.96726809 141.25065266 188.5935287 145 189 C145 190.32 145 191.64 145 193 C120.25 193 95.5 193 70 193 C70 191.68 70 190.36 70 189 C71.03640625 188.91363281 72.0728125 188.82726562 73.140625 188.73828125 C74.51053868 188.59753669 75.88032449 188.45554375 77.25 188.3125 C78.27287109 188.23225586 78.27287109 188.23225586 79.31640625 188.15039062 C82.79665065 187.76181965 84.78454033 187.18056604 87.484375 184.91796875 C90.04575092 179.98665995 89.5061459 175.82169812 88.07421875 170.66796875 C82.79296873 157.41277503 77.38416743 144.21568369 72 131 C46.59 130.67 21.18 130.34 -5 130 C-5.99 132.97 -6.98 135.94 -8 139 C-9.09094887 141.68420278 -10.20124667 144.34409585 -11.35546875 147 C-11.98449071 148.47884077 -12.61272248 149.95801784 -13.24023438 151.4375 C-14.21366152 153.72479588 -15.1916809 156.00961024 -16.18334961 158.2890625 C-17.15147441 160.51999002 -18.09865201 162.75890972 -19.04296875 165 C-19.3397905 165.66902344 -19.63661224 166.33804688 -19.94242859 167.02734375 C-21.99243509 171.95886421 -22.79189203 176.66691858 -22 182 C-19.31927909 186.06431879 -16.7791274 187.25512208 -12.1875 188.3125 C-10.79482492 188.56013717 -9.39968739 188.79568833 -8 189 C-8 190.32 -8 191.64 -8 193 C-21.53 193 -35.06 193 -49 193 C-49 191.68 -49 190.36 -49 189 C-47.82244141 188.67128906 -47.82244141 188.67128906 -46.62109375 188.3359375 C-38.95731478 186.02269869 -32.90070906 183.9255263 -28.703125 176.79785156 C-23.56124744 166.51031566 -19.25828504 155.87663453 -14.875 145.25 C-13.99575044 143.12797882 -13.11602122 141.00615633 -12.23583984 138.88452148 C-10.40595662 134.47247247 -8.57813405 130.05957877 -6.75195312 125.64599609 C-2.81067627 116.12356359 1.14939861 106.60897245 5.11236572 97.09555054 C6.36808115 94.07912019 7.62146746 91.06173025 8.87451172 88.04418945 C12.64690223 78.96954387 16.44992136 69.91160265 20.3671875 60.8984375 C21.03473585 59.35541673 21.70221848 57.81236754 22.36962891 56.26928711 C23.57907842 53.47453042 24.80449024 50.68762283 26.04052734 47.90454102 C26.5744767 46.67489512 27.10787886 45.44501141 27.640625 44.21484375 C28.09985352 43.17448975 28.55908203 42.13413574 29.03222656 41.06225586 C30.63951478 35.97642939 30.58573288 31.43680924 28.42578125 26.5546875 C27.91821289 25.40419922 27.91821289 25.40419922 27.40039062 24.23046875 C27.04138672 23.45316406 26.68238281 22.67585938 26.3125 21.875 C25.97283203 21.08996094 25.63316406 20.30492187 25.28320312 19.49609375 C22.36151136 13.0192219 18.91597062 8.24848297 12.046875 5.55859375 C8.10682375 4.48335076 4.06436699 4.23715622 0 4 C0 2.68 0 1.36 0 0 Z " fill="#060606" transform="translate(179,125)"/>
<path d="M0 0 C2.53667676 1.26833838 2.66372311 2.14264627 3.71728516 4.7331543 C4.04643417 5.53269028 4.37558319 6.33222626 4.71470642 7.1559906 C5.06924393 8.03650589 5.42378143 8.91702118 5.7890625 9.82421875 C6.16507095 10.74191544 6.54107941 11.65961212 6.92848206 12.6051178 C8.16670374 15.63014559 9.39577543 18.65880642 10.625 21.6875 C12.33953256 25.88530923 14.05853434 30.08128422 15.77734375 34.27734375 C16.2118837 35.34002472 16.64642365 36.40270569 17.09413147 37.49758911 C19.95999297 44.49671996 22.86777823 51.47675552 25.81640625 58.44140625 C26.37711823 59.76618233 26.37711823 59.76618233 26.94915771 61.11772156 C28.37812738 64.49036228 29.80892716 67.86219789 31.2456665 71.23153687 C32.2226114 73.5229531 33.19554423 75.81603772 34.16796875 78.109375 C34.4576503 78.78428482 34.74733185 79.45919464 35.04579163 80.15455627 C37 84.77353569 37 84.77353569 37 87 C12.91 87 -11.18 87 -36 87 C-24.49578425 58.23946063 -24.49578425 58.23946063 -20.859375 49.55078125 C-20.44383362 48.55394821 -20.02829224 47.55711517 -19.60015869 46.53007507 C-18.7443796 44.47811034 -17.88776679 42.42649309 -17.03027344 40.37524414 C-15.73435426 37.27507135 -14.44119192 34.17375928 -13.1484375 31.07226562 C-8.81832315 20.69192652 -4.46349111 10.32378973 0 0 Z " fill="#FCFAFA" transform="translate(212,164)"/>
<path d="M0 0 C5.67013792 -0.07528269 11.33997231 -0.12912526 17.01049805 -0.16479492 C18.93144816 -0.17969594 20.85236542 -0.20002377 22.77319336 -0.22631836 C42.75262624 -0.49257158 66.26395487 0.30929024 82.17578125 14.16015625 C89.55129212 21.59884066 94.25726343 30.4160039 95 41 C95.07476562 41.763125 95.14953125 42.52625 95.2265625 43.3125 C95.85076685 54.35106117 92.40126682 66.75260198 84.99609375 75.11328125 C74.25205141 85.26860894 59.75245231 90.84500253 45.0625 91.625 C44.37865234 91.66367188 43.69480469 91.70234375 42.99023438 91.7421875 C41.32720487 91.83522412 39.66364153 91.91863787 38 92 C37.34 90.35 36.68 88.7 36 87 C36.64066406 86.75765625 37.28132813 86.5153125 37.94140625 86.265625 C49.730318 81.69764131 57.5800919 76.71502759 63.2734375 64.95703125 C65.55877075 58.80137556 65.25566863 52.34619849 65.3125 45.875 C65.34150391 44.79734375 65.37050781 43.7196875 65.40039062 42.609375 C65.47895936 32.57675243 63.18966925 23.66754672 56.7578125 15.78125 C47.40217571 6.30087138 35.62179212 4.0701826 22.75390625 3.68359375 C22.09792953 3.66281265 21.44195282 3.64203156 20.76609802 3.62062073 C18.69832454 3.55594062 16.63043899 3.49662534 14.5625 3.4375 C13.14907758 3.39423693 11.73566593 3.35062035 10.32226562 3.30664062 C6.88162529 3.20034484 3.44086308 3.09885528 0 3 C0 2.01 0 1.02 0 0 Z " fill="#FF3535" transform="translate(244,133)"/>
<path d="M0 0 C9.24 0 18.48 0 28 0 C28.06058594 2.76890625 28.12117188 5.5378125 28.18359375 8.390625 C28.24541651 11.07473389 28.30879038 13.75880199 28.37231445 16.44287109 C28.41560433 18.30709192 28.45728361 20.17135088 28.49731445 22.03564453 C28.55516113 24.7165882 28.61881405 27.397341 28.68359375 30.078125 C28.70030624 30.91055725 28.71701874 31.7429895 28.73423767 32.60064697 C28.7641555 33.77140778 28.7641555 33.77140778 28.79467773 34.96582031 C28.81799416 35.99174286 28.81799416 35.99174286 28.84178162 37.03839111 C28.97569627 39.36675645 28.97569627 39.36675645 30 43 C30 45.97 30 48.94 30 52 C14.16 52 -1.68 52 -18 52 C-18 51.01 -18 50.02 -18 49 C-17.09636719 48.82984375 -16.19273437 48.6596875 -15.26171875 48.484375 C-14.08222656 48.24203125 -12.90273437 47.9996875 -11.6875 47.75 C-9.92986328 47.40195312 -9.92986328 47.40195312 -8.13671875 47.046875 C-4.68634496 45.89531812 -3.72460499 45.13136468 -2 42 C-0.69079497 38.0723849 -0.76537132 34.27429369 -0.68359375 30.17578125 C-0.66281265 29.31438034 -0.64203156 28.45297943 -0.62062073 27.56547546 C-0.55525091 24.81456456 -0.49629868 22.06355844 -0.4375 19.3125 C-0.39430283 17.44725579 -0.35068815 15.5820212 -0.30664062 13.71679688 C-0.19879684 9.14462742 -0.09963009 4.57238538 0 0 Z " fill="#FF3131" transform="translate(206,268)"/>
<path d="M0 0 C1.66622801 2.17493016 3.18553121 4.33998418 4.6875 6.625 C5.67215224 8.09053283 6.65789526 9.55533319 7.64453125 11.01953125 C8.18029785 11.8182666 8.71606445 12.61700195 9.26806641 13.43994141 C12.42001754 18.09899971 15.65352605 22.70137816 18.875 27.3125 C23.95521969 34.59918251 28.99801632 41.90942654 34 49.25 C35.99667395 52.16895865 37.99751906 55.08502327 40 58 C40.40186523 58.58797363 40.80373047 59.17594727 41.21777344 59.78173828 C48.63362928 70.58168555 55.48004699 77.03035455 68.625 79.75 C69.40875 79.8325 70.1925 79.915 71 80 C71 80.99 71 81.98 71 83 C60.11 83 49.22 83 38 83 C38 76.4 38 69.8 38 63 C31.64209145 63.19703222 31.64209145 63.19703222 25.28637695 63.45043945 C24.48675537 63.46292725 23.68713379 63.47541504 22.86328125 63.48828125 C22.05157471 63.51446533 21.23986816 63.54064941 20.40356445 63.56762695 C16.77895113 62.7116365 15.36195289 60.82936845 13 58 C11.60398707 55.6225762 10.36908055 53.33697698 9.19140625 50.859375 C8.85395889 50.16624207 8.51651154 49.47310913 8.1688385 48.75897217 C4.51385786 41.15669701 1.17573023 33.4172982 -2.06713867 25.63183594 C-3.08133446 23.20493035 -4.11366946 20.78621892 -5.14648438 18.3671875 C-5.79797944 16.81296249 -6.44841239 15.25829174 -7.09765625 13.703125 C-7.40582779 12.98650696 -7.71399933 12.26988892 -8.0315094 11.53155518 C-9.14653012 8.81552362 -10.03488326 6.59467072 -9.86108398 3.63183594 C-7.79257126 -0.28819214 -3.92317797 -1.30772599 0 0 Z " fill="#FF3434" transform="translate(299,237)"/>
<path d="M0 0 C2.81919569 3.36920541 4.46863598 7.04606968 6.13671875 11.06640625 C6.42102249 11.74170883 6.70532623 12.41701141 6.99824524 13.11277771 C7.59509233 14.53456181 8.18913191 15.95752737 8.78051758 17.3815918 C9.68727804 19.56196628 10.60568581 21.73716826 11.52539062 23.91210938 C12.10487001 25.29658082 12.68366971 26.68133699 13.26171875 28.06640625 C13.6741407 29.04148888 13.6741407 29.04148888 14.09489441 30.03627014 C15.26322679 32.8686985 16 34.90182854 16 38 C8.74 38 1.48 38 -6 38 C-7.14893617 12.08510638 -7.14893617 12.08510638 0 0 Z " fill="#FF3434" transform="translate(212,199)"/>
</svg>
